<?xml version="1.0" encoding="utf-8"?>
<!-- Generator: Adobe Illustrator 17.0.0, SVG Export Plug-In . SVG Version: 6.00 Build 0)  -->
<!DOCTYPE svg PUBLIC "-//W3C//DTD SVG 1.1//EN" "http://www.w3.org/Graphics/SVG/1.1/DTD/svg11.dtd">
<svg version="1.1" xmlns="http://www.w3.org/2000/svg" xmlns:xlink="http://www.w3.org/1999/xlink" x="0px" y="0px"
	 width="241.381px" height="238.07px" viewBox="0 0 241.381 238.07" enable-background="new 0 0 241.381 238.07"
	 xml:space="preserve">
<g id="_x32_0">
	<g>
		<path fill-rule="evenodd" clip-rule="evenodd" d="M210.106,149.361c-29.535-11.264-47.182-22.794-47.182-22.794l-22.753,71.956
			l-3.098,9.732L126.886,179.4c23.418-32.636-1.753-34.227-6.167-34.227h-0.227c-4.361,0.064-29.521,1.591-6.104,34.227
			l-10.188,28.855l-3.109-9.732l-22.741-71.956c0,0-17.648,11.53-47.18,22.794C-1.359,161.183,0.677,187.939,0,238.07h241.381
			C240.587,187.939,242.566,161.183,210.106,149.361L210.106,149.361z"/>
		<path fill-rule="evenodd" clip-rule="evenodd" d="M167.962,17.228h-15.757V9.346c0-8.701-7.549-9.346-16.249-9.346h-31.518
			C95.74,0,89.182,0.646,89.182,9.346v7.881H73.419c-8.698,0-15.752,7.054-15.752,15.752v70.911c0,8.701,7.054,15.754,15.752,15.754
			h94.543c8.701,0,15.758-7.054,15.758-15.754V32.979C183.72,24.282,176.663,17.228,167.962,17.228L167.962,17.228z M84.842,12.964
			c0-2.779-2.251-5.026-5.027-5.026H74.57c-2.765,0-5.027,2.236-5.027,5.026v1.896h15.288v-1.896H84.842z M167.962,40.861
			c-4.361,0-7.878-3.531-7.878-7.881s3.517-7.882,7.878-7.882c4.351,0,7.885,3.531,7.885,7.882S172.313,40.861,167.962,40.861
			L167.962,40.861z M120.696,28.252c4.762,0,9.332,0.959,13.526,2.692l0,0c4.316,1.797,8.202,4.414,11.451,7.666l0.012,0.011
			l0.011,0.012c3.243,3.251,5.871,7.138,7.661,11.457h0.005c1.739,4.177,2.689,8.751,2.689,13.52c0,4.772-0.95,9.347-2.689,13.523
			h-0.005c-1.79,4.32-4.418,8.206-7.661,11.458l-0.011,0.011l-0.012,0.011c-3.249,3.251-7.135,5.869-11.451,7.666l0,0
			c-4.194,1.733-8.765,2.689-13.526,2.689c-4.77,0-9.344-0.956-13.532-2.689h0.009c-4.328-1.798-8.214-4.415-11.466-7.666
			l-0.011-0.011l-0.011-0.011c-3.24-3.252-5.868-7.138-7.655-11.458h-0.011c-1.733-4.177-2.689-8.751-2.689-13.523
			c0-4.769,0.956-9.344,2.689-13.52h0.011c1.787-4.319,4.415-8.206,7.655-11.457l0.011-0.012l0.011-0.011
			c3.251-3.252,7.138-5.869,11.466-7.666h-0.009C111.353,29.211,115.927,28.252,120.696,28.252L120.696,28.252z M137.555,46.752
			c-2.214-2.22-4.842-4.007-7.728-5.192c-2.784-1.16-5.868-1.797-9.131-1.797c-3.26,0-6.353,0.637-9.14,1.797
			c-2.886,1.185-5.514,2.972-7.73,5.192c-2.22,2.217-3.995,4.845-5.192,7.719c-1.152,2.788-1.787,5.88-1.787,9.14
			c0,3.263,0.635,6.355,1.787,9.143c1.197,2.874,2.972,5.502,5.192,7.72c2.217,2.22,4.845,3.995,7.73,5.191
			c2.787,1.16,5.88,1.798,9.14,1.798c3.263,0,6.347-0.646,9.131-1.798c2.886-1.196,5.514-2.972,7.728-5.191
			c2.22-2.218,3.998-4.846,5.189-7.72c1.157-2.787,1.801-5.88,1.801-9.143c0-3.26-0.644-6.351-1.801-9.14
			C141.553,51.597,139.774,48.969,137.555,46.752L137.555,46.752z"/>
	</g>
	<path fill="#221E1F" d="M-58.746,347.483c-0.936,6.928-4.652,12.094-12.402,18.391l13.328,11.373
		c5.891-4.451,10.336-8.79,13.126-13.129c2.896-4.34,4.759-9.914,5.578-16.635l7.235-58.897h-19.63L-58.746,347.483z M-6.57,346.655
		c-4.026,0-5.997-2.679-5.888-8.058c0.106-7.856,4.241-13.845,9.195-13.845c4.037,0,5.888,2.684,5.793,8.052
		C2.421,340.667-1.604,346.655-6.57,346.655L-6.57,346.655z M-8.636,362.161c8.787,0,15.816-2.79,21.189-8.477
		c5.373-5.682,8.055-12.917,8.055-21.908c0-14.461-7.236-22.523-21.805-22.523c-8.785,0-15.805,2.784-21.179,8.471
		c-5.374,5.688-8.063,12.923-8.063,21.914C-30.438,354.098-23.205,362.161-8.636,362.161L-8.636,362.161z M74.344,361.126
		l4.233-35.132c1.345-11.155-2.477-16.741-11.575-16.741c-6.095,0-12.609,3.098-19.531,9.394l4.448-35.843l-17.768,1.04
		l-9.411,77.282h17.572l3.092-25.94c5.888-6.095,9.925-9.098,12.296-9.098c2.175,0,3.101,1.454,2.799,4.445l-3.727,30.592H74.344z
		 M134.278,361.126l4.228-35.132c1.342-11.155-2.478-16.741-11.575-16.741c-6.095,0-12.609,3.098-19.531,9.394l1.141-8.88
		l-17.776,1.035l-6.092,50.324h17.572l3.089-25.94c5.888-6.095,9.917-9.098,12.296-9.098c2.175,0,3.101,1.454,2.799,4.445
		l-3.724,30.592H134.278z M154.827,288.586l-8.784,70.88c7.342,1.756,14.985,2.695,22.837,2.695
		c12.503,0,22.428-3.825,29.965-11.479c7.544-7.745,11.262-19.007,11.262-33.785c0-18.905-9.712-28.311-29.138-28.311H154.827z
		 M179.42,299.848c11.67,0,17.574,6.302,17.574,18.799c0,20.679-10.132,32.253-25.531,32.253c-3.925,0-7.851-0.314-11.67-1.034
		l6.089-50.018H179.42z M238.205,352.028c-6.095,0-9.6-3.919-9.495-11.468c0-5.782,1.337-10.642,4.127-14.472
		c2.785-3.818,6.201-5.781,10.238-5.781c6.096,0,9.506,3.931,9.506,11.469c-0.105,5.793-1.453,10.646-4.244,14.471
		C245.553,350.071,242.242,352.028,238.205,352.028L238.205,352.028z M237.177,362.161c7.861,0,14.264-2.897,19.324-8.679
		c5.061-5.793,7.644-13.229,7.644-22.221c0-13.633-7.224-21.075-20.034-21.075c-7.862,0-14.365,2.897-19.438,8.678
		c-5.061,5.782-7.537,13.225-7.537,22.216C217.136,354.719,224.36,362.161,237.177,362.161L237.177,362.161z M305.999,346.762
		c-7.348,3.713-12.816,5.58-16.429,5.58c-4.966,0-7.136-3.824-6.822-8.885c19.839-2.897,29.753-9.819,29.753-20.874
		c0-6.721-5.888-12.397-15.086-12.397c-7.643,0-13.939,2.678-19.018,8.158c-4.948,5.475-7.436,13.229-7.436,23.451
		c0,12.716,6.62,20.365,17.776,20.365c5.172,0,11.574-2.069,19.219-6.207L305.999,346.762z M296.18,319.686
		c3.003,0,5.055,1.857,5.055,4.238c0,4.652-5.155,9.098-18.486,11.262C283.677,325.681,289.458,319.686,296.18,319.686
		L296.18,319.686z"/>
	<path fill="#221E1F" d="M-32.969,381.251c1.021-0.258,2.153-0.453,3.403-0.57c1.258-0.123,2.519-0.174,3.811-0.174
		c3.187,0,5.479,0.633,6.899,1.918c1.423,1.286,2.122,3.199,2.122,5.715v1.141c0,1.337-0.15,2.511-0.441,3.512
		c-0.302,1.012-0.786,1.862-1.465,2.539c-0.677,0.682-1.549,1.196-2.625,1.555c-1.068,0.352-2.379,0.536-3.919,0.536
		c-0.605,0-1.217-0.022-1.862-0.056c-0.646-0.033-1.272-0.084-1.896-0.156v8.107c0,0.392-0.193,0.599-0.604,0.599h-4.135
		c-0.408,0-0.612-0.207-0.612-0.599v-22.031c0-0.615,0.098-1.079,0.291-1.387C-33.81,381.587-33.475,381.368-32.969,381.251
		L-32.969,381.251z M-28.942,393.245c0.408,0.051,0.872,0.084,1.378,0.107c0.506,0.022,0.968,0.044,1.379,0.044
		c1.593,0,2.692-0.357,3.293-1.067c0.615-0.699,0.917-1.689,0.917-2.97v-0.827c0-1.331-0.302-2.326-0.917-2.997
		c-0.601-0.671-1.7-1.001-3.293-1.001c-0.476,0-0.959,0.034-1.432,0.073c-0.476,0.044-0.917,0.134-1.325,0.251V393.245z
		 M9.936,395.247H2.228v10.132c0,0.363-0.193,0.537-0.57,0.537h-4.426c-0.356,0-0.54-0.174-0.54-0.537v-23.882
		c0-0.381,0.184-0.57,0.54-0.57h4.426c0.377,0,0.57,0.189,0.57,0.57v9.389h7.708v-9.389c0-0.381,0.173-0.57,0.54-0.57h4.426
		c0.375,0,0.57,0.189,0.57,0.57v23.882c0,0.363-0.196,0.537-0.57,0.537h-4.426c-0.367,0-0.54-0.174-0.54-0.537V395.247z
		 M39.74,406.347c-3.66,0-6.321-1.029-7.991-3.109c-1.666-2.068-2.497-5.116-2.497-9.131v-1.359c0-4.025,0.83-7.073,2.497-9.137
		c1.669-2.068,4.33-3.103,7.991-3.103c3.671,0,6.341,1.035,7.998,3.103c1.67,2.064,2.5,5.111,2.5,9.137v1.359
		c0,4.015-0.83,7.063-2.5,9.131C46.081,405.317,43.411,406.347,39.74,406.347L39.74,406.347z M44.703,392.893
		c0-2.835-0.366-4.882-1.119-6.14c-0.755-1.274-2.024-1.896-3.844-1.896c-1.809,0-3.078,0.621-3.833,1.896
		c-0.744,1.258-1.122,3.305-1.122,6.14v1.073c0,2.818,0.377,4.865,1.122,6.141c0.755,1.252,2.024,1.879,3.833,1.879
		c1.82,0,3.089-0.627,3.844-1.879c0.752-1.275,1.119-3.322,1.119-6.141V392.893z M78.834,380.927c0.431,0,0.646,0.201,0.646,0.615
		v3.131c0,0.414-0.215,0.615-0.646,0.615h-5.782v20.029c0,0.392-0.204,0.599-0.601,0.599h-4.328c-0.399,0-0.604-0.207-0.604-0.599
		v-20.029h-5.782c-0.43,0-0.646-0.201-0.646-0.615v-3.131c0-0.414,0.215-0.615,0.646-0.615H78.834z M100.832,406.347
		c-3.671,0-6.33-1.029-7.999-3.109c-1.669-2.068-2.5-5.116-2.5-9.131v-1.359c0-4.025,0.831-7.073,2.5-9.137
		c1.669-2.068,4.328-3.103,7.999-3.103c3.659,0,6.332,1.035,7.99,3.103c1.669,2.064,2.508,5.111,2.508,9.137v1.359
		c0,4.015-0.839,7.063-2.508,9.131C107.164,405.317,104.491,406.347,100.832,406.347L100.832,406.347z M105.786,392.893
		c0-2.835-0.366-4.882-1.121-6.14c-0.755-1.274-2.024-1.896-3.833-1.896c-1.809,0-3.09,0.621-3.845,1.896
		c-0.743,1.258-1.118,3.305-1.118,6.14v1.073c0,2.818,0.375,4.865,1.118,6.141c0.755,1.252,2.036,1.879,3.845,1.879
		c1.809,0,3.078-0.627,3.833-1.879c0.755-1.275,1.121-3.322,1.121-6.141V392.893z M136.459,384.857
		c-1.376,0-2.505,0.174-3.377,0.498c-0.861,0.329-1.555,0.839-2.047,1.493c-0.509,0.665-0.839,1.504-1.023,2.521
		c-0.173,1.006-0.274,2.203-0.274,3.59v0.928c0,1.359,0.112,2.545,0.314,3.557c0.196,1.012,0.531,1.851,1.007,2.527
		c0.459,0.683,1.073,1.185,1.851,1.521c0.777,0.335,1.733,0.492,2.874,0.492c0.732,0,1.516-0.063,2.355-0.202v-6.072h-3.109
		c-0.408,0-0.604-0.207-0.604-0.604v-3.143c0-0.414,0.195-0.615,0.604-0.615h8.075c0.38,0,0.57,0.201,0.57,0.615v11.697
		c0,0.554-0.096,0.984-0.27,1.286c-0.179,0.313-0.503,0.525-0.989,0.648c-1.202,0.291-2.398,0.481-3.562,0.593
		c-1.163,0.101-2.488,0.157-3.965,0.157c-1.951,0-3.606-0.291-4.96-0.861c-1.358-0.57-2.46-1.387-3.31-2.455
		c-0.839-1.079-1.451-2.365-1.84-3.875c-0.378-1.521-0.57-3.209-0.57-5.094v-1.28c0-2.024,0.204-3.792,0.612-5.317
		c0.399-1.516,1.057-2.802,1.948-3.831c0.895-1.051,2.047-1.823,3.479-2.349c1.426-0.52,3.159-0.777,5.172-0.777
		c1.191,0,2.404,0.084,3.657,0.258c1.252,0.185,2.349,0.408,3.276,0.665c0.213,0.067,0.353,0.157,0.414,0.252
		c0.078,0.095,0.111,0.224,0.111,0.397v2.56c0,0.358-0.184,0.525-0.57,0.498c-0.973-0.084-1.918-0.162-2.852-0.207
		C138.528,384.874,137.527,384.857,136.459,384.857L136.459,384.857z M172.257,405.916c-0.352,0-0.632-0.061-0.827-0.196
		c-0.202-0.134-0.364-0.33-0.482-0.592l-3.931-8.209h-0.324c-0.453,0-0.956,0-1.538-0.012c-0.57-0.011-1.107-0.045-1.639-0.089
		v8.499c0,0.392-0.206,0.599-0.604,0.599h-4.316c-0.408,0-0.609-0.207-0.609-0.599v-22.031c0-0.615,0.089-1.079,0.291-1.387
		c0.189-0.313,0.525-0.531,1.028-0.648c1.023-0.258,2.187-0.453,3.5-0.57c1.304-0.123,2.607-0.174,3.887-0.174
		c1.649,0,3.024,0.162,4.165,0.51c1.119,0.352,2.047,0.86,2.752,1.515c0.693,0.665,1.202,1.471,1.516,2.433
		c0.296,0.95,0.464,2.047,0.464,3.288v0.923c0,1.638-0.28,3.036-0.839,4.177c-0.559,1.141-1.487,2.024-2.773,2.639l4.814,9.282
		c0.117,0.235,0.129,0.408,0.022,0.504c-0.106,0.1-0.23,0.14-0.375,0.14H172.257z M166.263,392.568c1.571,0,2.65-0.279,3.221-0.821
		c0.57-0.549,0.85-1.432,0.85-2.646v-0.777c0-1.213-0.279-2.097-0.85-2.65c-0.57-0.536-1.649-0.816-3.221-0.816
		c-0.47,0-0.951,0.017-1.42,0.073c-0.475,0.045-0.918,0.134-1.326,0.246v7.279c0.476,0.057,0.957,0.079,1.432,0.102
		C165.424,392.558,165.866,392.568,166.263,392.568L166.263,392.568z M201.747,380.927c0.531,0,0.855,0.246,0.973,0.721
		l6.465,23.559c0.039,0.184,0.027,0.358-0.034,0.492c-0.078,0.145-0.23,0.218-0.436,0.218h-4.362c-0.402,0-0.643-0.174-0.704-0.509
		l-1.079-4.317h-7.772l-1.079,4.317c-0.072,0.335-0.313,0.509-0.71,0.509h-4.357c-0.212,0-0.357-0.073-0.425-0.218
		c-0.078-0.135-0.084-0.309-0.045-0.492l6.464-23.559c0.118-0.475,0.442-0.721,0.968-0.721H201.747z M195.865,396.739h5.636
		l-2.818-11.451L195.865,396.739z M223.208,381.251c1.023-0.258,2.17-0.453,3.411-0.57c1.253-0.123,2.517-0.174,3.802-0.174
		c3.188,0,5.491,0.633,6.9,1.918c1.426,1.286,2.137,3.199,2.137,5.715v1.141c0,1.337-0.151,2.511-0.453,3.512
		c-0.291,1.012-0.789,1.862-1.465,2.539c-0.677,0.682-1.549,1.196-2.611,1.555c-1.08,0.352-2.383,0.536-3.938,0.536
		c-0.604,0-1.213-0.022-1.855-0.056c-0.638-0.033-1.275-0.084-1.901-0.156v8.107c0,0.392-0.19,0.599-0.604,0.599h-4.132
		c-0.408,0-0.599-0.207-0.599-0.599v-22.031c0-0.615,0.084-1.079,0.28-1.387C222.369,381.587,222.705,381.368,223.208,381.251
		L223.208,381.251z M227.234,393.245c0.413,0.051,0.872,0.084,1.381,0.107c0.521,0.022,0.968,0.044,1.382,0.044
		c1.588,0,2.689-0.357,3.299-1.067c0.604-0.699,0.905-1.689,0.905-2.97v-0.827c0-1.331-0.302-2.326-0.905-2.997
		c-0.609-0.671-1.711-1.001-3.299-1.001c-0.481,0-0.951,0.034-1.432,0.073c-0.481,0.044-0.918,0.134-1.331,0.251V393.245z
		 M266.118,395.247h-7.711v10.132c0,0.363-0.195,0.537-0.57,0.537h-4.423c-0.357,0-0.542-0.174-0.542-0.537v-23.882
		c0-0.381,0.185-0.57,0.542-0.57h4.423c0.375,0,0.57,0.189,0.57,0.57v9.389h7.711v-9.389c0-0.381,0.18-0.57,0.537-0.57h4.423
		c0.375,0,0.576,0.189,0.576,0.57v23.882c0,0.363-0.201,0.537-0.576,0.537h-4.423c-0.357,0-0.537-0.174-0.537-0.537V395.247z
		 M292.433,405.916c-0.413,0-0.615-0.207-0.615-0.599v-7.929l-7.638-15.679c-0.089-0.157-0.089-0.33-0.017-0.515
		c0.084-0.179,0.234-0.269,0.453-0.269h4.132c0.431,0,0.744,0.213,0.923,0.648l4.932,10.602l4.932-10.602
		c0.185-0.436,0.498-0.648,0.929-0.648h4.138c0.213,0,0.363,0.09,0.447,0.269c0.078,0.185,0.078,0.357-0.022,0.515l-7.627,15.679
		v7.929c0,0.392-0.212,0.599-0.615,0.599H292.433z"/>
</g>
<g id="Layer_1">
</g>
</svg>
